{"asset":{"version":"2.0","generator":"THREE.GLTFExporter"},"scenes":[{"name":"default","nodes":[0]}],"scene":0,"nodes":[{"mesh":0}],"bufferViews":[{"buffer":0,"byteOffset":0,"byteLength":34200,"target":34962,"byteStride":12},{"buffer":0,"byteOffset":34200,"byteLength":34200,"target":34962,"byteStride":12},{"buffer":0,"byteOffset":68400,"byteLength":22800,"target":34962,"byteStride":8},{"buffer":0,"byteOffset":91200,"byteLength":5700,"target":34963}],"buffers":[{"byteLength":96900,"uri":"data:application/octet-stream;base64,"}],"accessors":[{"bufferView":0,"componentType":5126,"count":2850,"max":[9,2.5,0.5],"min":[-6,0,-11.5],"type":"VEC3"},{"bufferView":1,"componentType":5126,"count":2850,"max":[1,1,1],"min":[-1,-1,-1],"type":"VEC3"},{"bufferView":2,"componentType":5126,"count":2850,"max":[0.4375,0.09375],"min":[0,0],"type":"VEC2"},{"bufferView":3,"componentType":5123,"count":2850,"max":[2849],"min":[0],"type":"SCALAR"}],"materials":[{"pbrMetallicRoughness":{"metallicFactor":0,"roughnessFactor":1,"baseColorTexture":{"index":0}},"alphaMode":"MASK","alphaCutoff":0.01,"name":"test1_1"}],"textures":[{"sampler":0,"source":0,"name":"test1_1"}],"samplers":[{"magFilter":9728,"minFilter":9728,"wrapS":33071,"wrapT":33071}],"images":[{"mimeType":"image/png","uri":"data:image/png;base64,"}],"meshes":[{"primitives":[{"mode":4,"attributes":{"POSITION":0,"NORMAL":1,"TEXCOORD_0":2},"indices":3,"material":0}]}]}