{"asset":{"version":"2.0","generator":"THREE.GLTFExporter"},"scenes":[{"name":"default","nodes":[0]}],"scene":0,"nodes":[{"mesh":0}],"bufferViews":[{"buffer":0,"byteOffset":0,"byteLength":22488,"target":34962,"byteStride":12},{"buffer":0,"byteOffset":22488,"byteLength":22488,"target":34962,"byteStride":12},{"buffer":0,"byteOffset":44976,"byteLength":14992,"target":34962,"byteStride":8},{"buffer":0,"byteOffset":59968,"byteLength":29984,"target":34962,"byteStride":16},{"buffer":0,"byteOffset":89952,"byteLength":48,"target":34963},{"buffer":0,"byteOffset":90000,"byteLength":12,"target":34963},{"buffer":0,"byteOffset":90012,"byteLength":84,"target":34963},{"buffer":0,"byteOffset":90096,"byteLength":12,"target":34963},{"buffer":0,"byteOffset":90108,"byteLength":348,"target":34963},{"buffer":0,"byteOffset":90456,"byteLength":168,"target":34963},{"buffer":0,"byteOffset":90624,"byteLength":468,"target":34963},{"buffer":0,"byteOffset":91092,"byteLength":12,"target":34963},{"buffer":0,"byteOffset":91104,"byteLength":12,"target":34963},{"buffer":0,"byteOffset":91116,"byteLength":12,"target":34963},{"buffer":0,"byteOffset":91128,"byteLength":12,"target":34963},{"buffer":0,"byteOffset":91140,"byteLength":12,"target":34963},{"buffer":0,"byteOffset":91152,"byteLength":72,"target":34963},{"buffer":0,"byteOffset":91224,"byteLength":216,"target":34963},{"buffer":0,"byteOffset":91440,"byteLength":24,"target":34963},{"buffer":0,"byteOffset":91464,"byteLength":4188,"target":34963}],"buffers":[{"byteLength":95652,"uri":"data:application/octet-stream;base64,"}],"accessors":[{"bufferView":0,"componentType":5126,"count":1874,"max":[9,2.5,0.5],"min":[-6,0,-11.5],"type":"VEC3"},{"bufferView":1,"componentType":5126,"count":1874,"max":[1,1,1],"min":[-1,-1,-1],"type":"VEC3"},{"bufferView":2,"componentType":5126,"count":1874,"max":[6,9],"min":[0,0],"type":"VEC2"},{"bufferView":3,"componentType":5126,"count":1874,"max":[1,1,1,1],"min":[0.30054381489753723,0.12477181851863861,0.0802198275923729,1],"type":"VEC4"},{"bufferView":4,"componentType":5123,"count":24,"max":[15],"min":[0],"type":"SCALAR"},{"bufferView":5,"componentType":5123,"count":6,"max":[19],"min":[16],"type":"SCALAR"},{"bufferView":6,"componentType":5123,"count":42,"max":[47],"min":[20],"type":"SCALAR"},{"bufferView":7,"componentType":5123,"count":6,"max":[51],"min":[48],"type":"SCALAR"},{"bufferView":8,"componentType":5123,"count":174,"max":[163],"min":[52],"type":"SCALAR"},{"bufferView":9,"componentType":5123,"count":84,"max":[219],"min":[164],"type":"SCALAR"},{"bufferView":10,"componentType":5123,"count":234,"max":[375],"min":[220],"type":"SCALAR"},{"bufferView":11,"componentType":5123,"count":6,"max":[379],"min":[376],"type":"SCALAR"},{"bufferView":12,"componentType":5123,"count":6,"max":[383],"min":[380],"type":"SCALAR"},{"bufferView":13,"componentType":5123,"count":6,"max":[387],"min":[384],"type":"SCALAR"},{"bufferView":14,"componentType":5123,"count":6,"max":[391],"min":[388],"type":"SCALAR"},{"bufferView":15,"componentType":5123,"count":6,"max":[395],"min":[392],"type":"SCALAR"},{"bufferView":16,"componentType":5123,"count":36,"max":[419],"min":[396],"type":"SCALAR"},{"bufferView":17,"componentType":5123,"count":108,"max":[489],"min":[407],"type":"SCALAR"},{"bufferView":18,"componentType":5123,"count":12,"max":[497],"min":[490],"type":"SCALAR"},{"bufferView":19,"componentType":5123,"count":2094,"max":[1873],"min":[498],"type":"SCALAR"}],"materials":[{"pbrMetallicRoughness":{"metallicFactor":0,"roughnessFactor":1,"baseColorTexture":{"index":0}},"alphaMode":"MASK","alphaCutoff":0.01,"name":"house_3"},{"pbrMetallicRoughness":{"metallicFactor":0,"roughnessFactor":1,"baseColorTexture":{"index":1}},"alphaMode":"MASK","alphaCutoff":0.01,"name":"house_2"},{"pbrMetallicRoughness":{"metallicFactor":0,"roughnessFactor":1,"baseColorTexture":{"index":2}},"alphaMode":"MASK","alphaCutoff":0.01,"name":"house_0"},{"pbrMetallicRoughness":{"metallicFactor":0,"roughnessFactor":1,"baseColorTexture":{"index":3}},"alphaMode":"MASK","alphaCutoff":0.01,"name":"house_4"},{"pbrMetallicRoughness":{"metallicFactor":0,"roughnessFactor":1,"baseColorTexture":{"index":4}},"alphaMode":"MASK","alphaCutoff":0.01,"name":"house_1"},{"pbrMetallicRoughness":{"metallicFactor":0,"roughnessFactor":1,"baseColorTexture":{"index":5}},"alphaMode":"MASK","alphaCutoff":0.01,"name":"house_5"},{"pbrMetallicRoughness":{"metallicFactor":0,"roughnessFactor":1,"baseColorTexture":{"index":6}},"alphaMode":"MASK","alphaCutoff":0.01,"name":"house_18"},{"pbrMetallicRoughness":{"metallicFactor":0,"roughnessFactor":1,"baseColorTexture":{"index":7}},"alphaMode":"MASK","alphaCutoff":0.01,"name":"house_8"},{"pbrMetallicRoughness":{"metallicFactor":0,"roughnessFactor":1,"baseColorTexture":{"index":8}},"alphaMode":"MASK","alphaCutoff":0.01,"name":"house_9"},{"pbrMetallicRoughness":{"metallicFactor":0,"roughnessFactor":1,"baseColorTexture":{"index":9}},"alphaMode":"MASK","alphaCutoff":0.01,"name":"house_10"},{"pbrMetallicRoughness":{"metallicFactor":0,"roughnessFactor":1,"baseColorTexture":{"index":10}},"alphaMode":"MASK","alphaCutoff":0.01,"name":"house_11"},{"pbrMetallicRoughness":{"metallicFactor":0,"roughnessFactor":1,"baseColorTexture":{"index":11}},"alphaMode":"MASK","alphaCutoff":0.01,"doubleSided":true,"name":"house_17"},{"pbrMetallicRoughness":{"metallicFactor":0,"roughnessFactor":1,"baseColorTexture":{"index":12}},"alphaMode":"MASK","alphaCutoff":0.01,"name":"house_20"},{"pbrMetallicRoughness":{"metallicFactor":0,"roughnessFactor":1,"baseColorTexture":{"index":13}},"alphaMode":"MASK","alphaCutoff":0.01,"name":"house_21"},{"pbrMetallicRoughness":{"metallicFactor":0,"roughnessFactor":1,"baseColorTexture":{"index":14}},"alphaMode":"MASK","alphaCutoff":0.01,"name":"house_6"},{"pbrMetallicRoughness":{"metallicFactor":0,"roughnessFactor":1,"baseColorTexture":{"index":15}},"alphaMode":"MASK","alphaCutoff":0.01,"name":"house_12"}],"textures":[{"sampler":0,"source":0,"name":"house_3"},{"sampler":1,"source":1,"name":"house_2"},{"sampler":2,"source":2,"name":"house_0"},{"sampler":3,"source":3,"name":"house_4"},{"sampler":4,"source":4,"name":"house_1"},{"sampler":5,"source":5,"name":"house_5"},{"sampler":6,"source":6,"name":"house_18"},{"sampler":7,"source":7,"name":"house_8"},{"sampler":8,"source":8,"name":"house_9"},{"sampler":9,"source":9,"name":"house_10"},{"sampler":10,"source":10,"name":"house_11"},{"sampler":11,"source":11,"name":"house_17"},{"sampler":12,"source":12,"name":"house_20"},{"sampler":13,"source":13,"name":"house_21"},{"sampler":14,"source":14,"name":"house_6"},{"sampler":15,"source":15,"name":"house_12"}],"samplers":[{"magFilter":9728,"minFilter":9728,"wrapS":10497,"wrapT":10497},{"magFilter":9728,"minFilter":9728,"wrapS":10497,"wrapT":10497},{"magFilter":9728,"minFilter":9728,"wrapS":10497,"wrapT":10497},{"magFilter":9728,"minFilter":9728,"wrapS":10497,"wrapT":10497},{"magFilter":9728,"minFilter":9728,"wrapS":33071,"wrapT":33071},{"magFilter":9728,"minFilter":9728,"wrapS":10497,"wrapT":10497},{"magFilter":9728,"minFilter":9728,"wrapS":10497,"wrapT":10497},{"magFilter":9728,"minFilter":9728,"wrapS":33071,"wrapT":33071},{"magFilter":9728,"minFilter":9728,"wrapS":33071,"wrapT":33071},{"magFilter":9728,"minFilter":9728,"wrapS":33071,"wrapT":33071},{"magFilter":9728,"minFilter":9728,"wrapS":33071,"wrapT":33071},{"magFilter":9728,"minFilter":9728,"wrapS":33071,"wrapT":33071},{"magFilter":9728,"minFilter":9728,"wrapS":33071,"wrapT":33071},{"magFilter":9728,"minFilter":9728,"wrapS":33071,"wrapT":33071},{"magFilter":9728,"minFilter":9728,"wrapS":33071,"wrapT":33071},{"magFilter":9728,"minFilter":9728,"wrapS":33071,"wrapT":33071}],"images":[{"mimeType":"image/png","uri":"data:image/png;base64,"},{"mimeType":"image/png","uri":"data:image/png;base64,"},{"mimeType":"image/png","uri":"data:image/png;base64,"},{"mimeType":"image/png","uri":"data:image/png;base64,"},{"mimeType":"image/png","uri":"data:image/png;base64,"},{"mimeType":"image/png","uri":"data:image/png;base64,"},{"mimeType":"image/png","uri":"data:image/png;base64,"},{"mimeType":"image/png","uri":"data:image/png;base64,"},{"mimeType":"image/png","uri":"data:image/png;base64,"},{"mimeType":"image/png","uri":"data:image/png;base64,"},{"mimeType":"image/png","uri":"data:image/png;base64,"},{"mimeType":"image/png","uri":"data:image/png;base64,"},{"mimeType":"image/png","uri":"data:image/png;base64,"},{"mimeType":"image/png","uri":"data:image/png;base64,"},{"mimeType":"image/png","uri":"data:image/png;base64,"},{"mimeType":"image/png","uri":"data:image/png;base64,"}],"meshes":[{"primitives":[{"mode":4,"attributes":{"POSITION":0,"NORMAL":1,"TEXCOORD_0":2,"COLOR_0":3},"indices":4,"material":0},{"mode":4,"attributes":{"POSITION":0,"NORMAL":1,"TEXCOORD_0":2,"COLOR_0":3},"indices":5,"material":1},{"mode":4,"attributes":{"POSITION":0,"NORMAL":1,"TEXCOORD_0":2,"COLOR_0":3},"indices":6,"material":2},{"mode":4,"attributes":{"POSITION":0,"NORMAL":1,"TEXCOORD_0":2,"COLOR_0":3},"indices":7,"material":3},{"mode":4,"attributes":{"POSITION":0,"NORMAL":1,"TEXCOORD_0":2,"COLOR_0":3},"indices":8,"material":4},{"mode":4,"attributes":{"POSITION":0,"NORMAL":1,"TEXCOORD_0":2,"COLOR_0":3},"indices":9,"material":5},{"mode":4,"attributes":{"POSITION":0,"NORMAL":1,"TEXCOORD_0":2,"COLOR_0":3},"indices":10,"material":6},{"mode":4,"attributes":{"POSITION":0,"NORMAL":1,"TEXCOORD_0":2,"COLOR_0":3},"indices":11,"material":7},{"mode":4,"attributes":{"POSITION":0,"NORMAL":1,"TEXCOORD_0":2,"COLOR_0":3},"indices":12,"material":8},{"mode":4,"attributes":{"POSITION":0,"NORMAL":1,"TEXCOORD_0":2,"COLOR_0":3},"indices":13,"material":9},{"mode":4,"attributes":{"POSITION":0,"NORMAL":1,"TEXCOORD_0":2,"COLOR_0":3},"indices":14,"material":10},{"mode":4,"attributes":{"POSITION":0,"NORMAL":1,"TEXCOORD_0":2,"COLOR_0":3},"indices":15,"material":11},{"mode":4,"attributes":{"POSITION":0,"NORMAL":1,"TEXCOORD_0":2,"COLOR_0":3},"indices":16,"material":12},{"mode":4,"attributes":{"POSITION":0,"NORMAL":1,"TEXCOORD_0":2,"COLOR_0":3},"indices":17,"material":13},{"mode":4,"attributes":{"POSITION":0,"NORMAL":1,"TEXCOORD_0":2,"COLOR_0":3},"indices":18,"material":14},{"mode":4,"attributes":{"POSITION":0,"NORMAL":1,"TEXCOORD_0":2,"COLOR_0":3},"indices":19,"material":15}]}]}