<?xml version="1.0" encoding="UTF-8" standalone="no"?>
<!DOCTYPE svg PUBLIC "-//W3C//DTD SVG 1.1//EN" "http://www.w3.org/Graphics/SVG/1.1/DTD/svg11.dtd">
<svg width="100%" height="100%" viewBox="0 0 16 16" version="1.1" xmlns="http://www.w3.org/2000/svg" xmlns:xlink="http://www.w3.org/1999/xlink" xml:space="preserve" xmlns:serif="http://www.serif.com/" style="fill-rule:evenodd;clip-rule:evenodd;stroke-linejoin:round;stroke-miterlimit:2;">
    <path d="M6.492,1C5.943,1 5.492,1.451 5.492,2L5.492,5C5.492,5.549 5.943,6 6.492,6L7.492,6L7.492,6.99C7.384,6.993 7.277,7.014 7.176,7.052L5.125,7.736L4.441,5.685C4.305,5.277 3.922,5 3.492,5C2.943,5 2.492,5.452 2.492,6.001C2.492,6.108 2.509,6.214 2.543,6.316L3.543,9.316C3.679,9.724 4.062,10 4.492,10C4.599,10 4.706,9.983 4.808,9.949L6.492,9.389L6.492,9.999C6.492,10.04 6.511,10.075 6.516,10.115L1.937,13.167C1.659,13.352 1.492,13.665 1.492,13.999C1.492,14.548 1.943,14.999 2.492,14.999C2.69,14.999 2.883,14.941 3.047,14.831L8.103,11.461L9.598,14.447C9.819,14.89 10.338,15.105 10.808,14.949L13.808,13.949C14.226,13.82 14.513,13.431 14.513,12.993C14.513,12.445 14.062,11.993 13.513,11.993C13.398,11.993 13.284,12.013 13.176,12.052L10.998,12.777L10.023,10.826C10.311,10.65 10.489,10.337 10.492,9.999L10.492,9L11.875,9L12.597,10.448C12.766,10.786 13.114,11.001 13.492,11.001C14.041,11.001 14.493,10.549 14.493,10.001C14.493,9.845 14.456,9.692 14.387,9.553L13.387,7.553C13.218,7.214 12.87,7 12.492,7L9.492,7L9.492,6L10.492,6C11.041,6 11.492,5.549 11.492,5L11.492,2C11.492,1.451 11.041,1 10.492,1L6.492,1ZM6.492,3L7.492,3L7.492,5L6.492,5L6.492,3Z" style="fill:rgb(224,224,224);fill-rule:nonzero;"/>
</svg>
